<svg width="864" height="227" viewBox="0 0 864 227" fill="none" xmlns="http://www.w3.org/2000/svg">
<path d="M0 1.08366C40.6391 89.9484 67.8411 139.174 117.854 226.769C143.311 227.929 154.075 209.857 172.461 173.199L221.193 79.053C221.193 79.053 261.629 2.18679 258.864 0.598805C256.1 -0.989181 193.198 1.08366 193.198 1.08366C176.033 2.65796 167.111 9.2277 152.07 30.1152L156.563 33.9169C159.243 36.1192 158.931 37.6349 156.563 40.8292C142.402 59.5522 133.569 72.9534 121.656 84.3764L83.2928 13.1801C77.6777 4.4595 73.505 2.08643 64.6297 1.08366H0Z" fill="url(#paint0_linear_1709_13471)"/>
<path d="M177.3 37.026C178.682 40.4796 187.323 47.3943 187.323 47.3943L77.7632 141.401L208.405 64.675L214.972 70.552C224.917 50.8415 236.4 25.6217 237.091 22.8573C237.782 20.0929 175.917 33.5723 177.3 37.026Z" fill="white"/>
<path d="M779.057 93.8804H749.263L791.101 159.154L748.629 225.732H778.423L806.949 180.694L834.84 225.732H864L821.528 159.154L863.366 93.8804H833.573L806.315 137.613L779.057 93.8804Z" fill="white"/>
<path d="M779.057 93.8804H749.263L791.101 159.154L748.629 225.732H778.423L806.949 180.694L834.84 225.732H864L821.528 159.154L863.366 93.8804H833.573L806.315 137.613L779.057 93.8804Z" fill="url(#paint1_linear_1709_13471)"/>
<path d="M314.228 225.732V128.413H335.147L335.781 138.081C342.127 132.298 347.858 128.822 353.53 127.224C372.681 123.126 387.127 126.481 396.002 139.37C404.876 152.259 404.16 163.475 404.242 179.973V225.732H379.52V179.973C380.624 154.539 365.682 142.769 350.361 150.645C347.68 152.023 346.267 153.159 344.317 155.482C341.891 158.373 341.276 160.606 340.071 164.204C338.107 170.071 338.626 173.52 338.316 179.973V225.732H314.228Z" fill="#2C3C55"/>
<path d="M256.471 124.337C274.258 124.729 286.226 131.18 295.176 145.645C300.797 154.316 302.167 165.786 301.319 181.803L234.362 182.448C235.674 188.012 236.794 191.458 239.32 194.687C241.847 197.915 245.951 201.612 249.514 202.77C261.236 206.047 270.404 202.259 276.685 192.134L300.688 199.236C294.024 212.911 284.165 222.77 264.674 226.592C258.047 227.532 250.322 226.86 240.679 224.418C228.264 218.419 217.764 212.277 211.613 195.386C209.049 188.13 208.274 178.787 209.727 165.66C213.638 147.701 221.24 135.581 237.278 127.565C242.586 125.11 248.785 124.117 256.471 124.337ZM257.264 144.485C246.574 144.515 238.967 150.801 235.076 163.333H277.548C274.443 148.586 267.953 144.456 257.264 144.485Z" fill="#2C3C55"/>
<path d="M507.733 225.733H486.18V219.062C466.237 229.857 448.864 230.248 433.112 216.476C428.939 212.827 426.923 210.033 424.057 205.485C418.115 194.165 416.739 186.095 416.939 173.158C417.041 166.533 417.345 162.699 419.196 156.348C420.576 151.613 421.528 148.923 424.057 144.71C433.505 128.972 448.362 122.396 465.895 124.411C471.144 124.786 476.706 126.362 483.01 129.194L483.267 93.8804H507.733V225.733ZM486.65 175.761C486.453 158.116 478.629 144.502 463.83 145.968C451.226 145.968 441.009 159.307 441.009 175.761C441.009 192.216 451.226 205.555 463.83 205.555C477.534 206.147 486.847 193.407 486.65 175.761Z" fill="#2C3C55"/>
<path d="M570.495 124.326C598.203 123.546 619.713 147.087 619.307 175.979C619.307 204.153 597.803 226.993 570.495 226.993C542.736 227.47 520.061 203.921 520.415 175.341C520.032 146.873 542.742 124.03 570.495 124.326ZM570.2 146.008C556.71 146.008 545.774 158.972 545.774 174.964C545.453 192.187 555.946 204.015 569.518 204.674C582.919 204.535 594.392 192.17 593.943 175.719C593.943 159.727 583.69 146.008 570.2 146.008Z" fill="#2C3C55"/>
<path d="M631.991 93.8804V225.732H655.934V138.919L711.379 225.732H735.951V93.8804H711.379V181.999L655.934 93.8804H631.991Z" fill="white"/>
<path d="M631.991 93.8804V225.732H655.934V138.919L711.379 225.732H735.951V93.8804H711.379V181.999L655.934 93.8804H631.991Z" fill="url(#paint2_linear_1709_13471)"/>
<defs>
<linearGradient id="paint0_linear_1709_13471" x1="279.269" y1="117.683" x2="-0.000538918" y2="113.446" gradientUnits="userSpaceOnUse">
<stop stop-color="#BC1FD4"/>
<stop offset="0.533654" stop-color="#101FE3"/>
<stop offset="0.975962" stop-color="#15C6FA"/>
</linearGradient>
<linearGradient id="paint1_linear_1709_13471" x1="806.315" y1="93.8804" x2="806.315" y2="225.732" gradientUnits="userSpaceOnUse">
<stop stop-color="#00B6FC"/>
<stop offset="1" stop-color="#0070ED"/>
</linearGradient>
<linearGradient id="paint2_linear_1709_13471" x1="683.971" y1="93.8804" x2="683.971" y2="225.732" gradientUnits="userSpaceOnUse">
<stop stop-color="#00B6FC"/>
<stop offset="1" stop-color="#0070ED"/>
</linearGradient>
</defs>
</svg>
