<svg width="864" height="227" viewBox="0 0 864 227" fill="none" xmlns="http://www.w3.org/2000/svg">
<path d="M0 1.08366C40.6391 89.9484 67.8411 139.174 117.854 226.769C143.311 227.929 154.075 209.857 172.461 173.199L221.193 79.053C221.193 79.053 261.629 2.18679 258.864 0.598805C256.1 -0.989181 193.198 1.08366 193.198 1.08366C176.033 2.65796 167.111 9.2277 152.07 30.1152L156.563 33.9169C159.243 36.1192 158.931 37.6349 156.563 40.8292C142.402 59.5522 133.569 72.9534 121.656 84.3764L83.2928 13.1801C77.6777 4.4595 73.505 2.08643 64.6297 1.08366H0Z" fill="url(#paint0_linear_1734_19417)"/>
<path d="M177.3 37.026C178.682 40.4796 187.323 47.3943 187.323 47.3943L77.7632 141.401L208.405 64.675L214.972 70.552C224.917 50.8415 236.4 25.6217 237.091 22.8573C237.782 20.0929 175.917 33.5723 177.3 37.026Z" fill="white"/>
<path d="M779.057 93.8804H749.263L791.101 159.154L748.629 225.732H778.423L806.949 180.694L834.84 225.732H864L821.528 159.154L863.366 93.8804H833.573L806.315 137.613L779.057 93.8804Z" fill="#111827"/>
<path d="M779.057 93.8804H749.263L791.101 159.154L748.629 225.732H778.423L806.949 180.694L834.84 225.732H864L821.528 159.154L863.366 93.8804H833.573L806.315 137.613L779.057 93.8804Z" fill="url(#paint1_linear_1734_19417)"/>
<path d="M314.228 225.732V128.413H335.147L335.781 138.081C342.127 132.298 347.858 128.822 353.53 127.224C372.681 123.126 387.127 126.481 396.002 139.37C404.876 152.259 404.16 163.475 404.242 179.973V225.732H379.52V179.973C380.624 154.539 365.682 142.769 350.361 150.645C347.68 152.023 346.267 153.159 344.317 155.482C341.891 158.373 341.276 160.606 340.071 164.204C338.107 170.071 338.626 173.52 338.316 179.973V225.732H314.228Z" fill="white"/>
<path d="M300.688 199.236L276.684 192.134C270.403 202.259 261.236 206.048 249.514 202.77C245.951 201.612 241.847 197.915 239.32 194.687C236.794 191.458 235.674 188.013 234.362 182.448L301.32 181.803C302.167 165.786 300.798 154.316 295.176 145.644C286.226 131.18 274.257 124.729 256.471 124.337C248.785 124.117 242.586 125.109 237.278 127.565C221.24 135.581 213.638 147.702 209.727 165.661C208.274 178.787 209.049 188.131 211.613 195.386C217.764 212.277 228.264 218.419 240.679 224.418C250.322 226.86 258.047 227.533 264.674 226.592C284.165 222.77 294.025 212.911 300.688 199.236Z" fill="white"/>
<path d="M277.548 163.333H235.077C238.968 150.8 246.574 144.514 257.263 144.485C267.953 144.455 274.444 148.586 277.548 163.333Z" fill="#111827"/>
<path d="M486.18 225.732V219.062C466.237 229.857 448.864 230.248 433.111 216.476C428.938 212.827 426.923 210.033 424.057 205.485C418.115 194.165 416.739 186.095 416.939 173.158C417.041 166.533 417.345 162.699 419.196 156.348C420.576 151.613 421.528 148.924 424.057 144.711C433.505 128.972 448.362 122.396 465.895 124.41C471.144 124.785 476.706 126.362 483.01 129.194L483.267 93.8804H507.733V225.732H486.18Z" fill="white"/>
<path d="M486.649 175.762C486.847 193.407 477.534 206.146 463.829 205.555C451.225 205.555 441.008 192.216 441.008 175.762C441.008 159.307 451.225 145.968 463.829 145.968C478.628 144.502 486.452 158.116 486.649 175.762Z" fill="#111827"/>
<path d="M619.307 175.978C619.307 204.153 597.803 226.992 570.495 226.992C542.736 227.47 520.061 203.921 520.415 175.34C520.032 146.872 542.742 124.029 570.495 124.326C598.203 123.546 619.713 147.086 619.307 175.978Z" fill="white"/>
<path d="M593.944 175.719C594.393 192.17 582.92 204.536 569.518 204.674C555.946 204.015 545.453 192.187 545.774 174.964C545.774 158.972 556.71 146.008 570.2 146.008C583.69 146.008 593.944 159.727 593.944 175.719Z" fill="#111827"/>
<path d="M631.991 93.8804V225.732H655.934V138.919L711.379 225.732H735.951V93.8804H711.379V181.999L655.934 93.8804H631.991Z" fill="#111827"/>
<path d="M631.991 93.8804V225.732H655.934V138.919L711.379 225.732H735.951V93.8804H711.379V181.999L655.934 93.8804H631.991Z" fill="url(#paint2_linear_1734_19417)"/>
<defs>
<linearGradient id="paint0_linear_1734_19417" x1="279.269" y1="117.683" x2="-0.000538918" y2="113.446" gradientUnits="userSpaceOnUse">
<stop stop-color="#BC1FD4"/>
<stop offset="0.533654" stop-color="#101FE3"/>
<stop offset="0.975962" stop-color="#15C6FA"/>
</linearGradient>
<linearGradient id="paint1_linear_1734_19417" x1="806.315" y1="93.8804" x2="806.315" y2="225.732" gradientUnits="userSpaceOnUse">
<stop stop-color="#00B6FC"/>
<stop offset="1" stop-color="#0070ED"/>
</linearGradient>
<linearGradient id="paint2_linear_1734_19417" x1="683.971" y1="93.8804" x2="683.971" y2="225.732" gradientUnits="userSpaceOnUse">
<stop stop-color="#00B6FC"/>
<stop offset="1" stop-color="#0070ED"/>
</linearGradient>
</defs>
</svg>
